<svg width="29" height="29" viewBox="0 0 29 29" fill="none" xmlns="http://www.w3.org/2000/svg">
<path d="M11.9542 1.97106C12.2277 1.66553 12.5627 1.42113 12.9371 1.25381C13.3115 1.08648 13.717 1 14.1271 1C14.5372 1 14.9427 1.08648 15.3171 1.25381C15.6915 1.42113 16.0264 1.66553 16.3 1.97106L17.3208 3.11148C17.6126 3.43741 17.9739 3.69354 18.3781 3.86091C18.7822 4.02828 19.2189 4.10259 19.6556 4.07835L21.1869 3.99377C21.5964 3.97119 22.0062 4.03526 22.3893 4.18178C22.7724 4.32831 23.1203 4.55399 23.4103 4.84411C23.7003 5.13422 23.9258 5.48224 24.0721 5.86544C24.2185 6.24863 24.2824 6.65838 24.2596 7.06794L24.175 8.59773C24.151 9.03425 24.2254 9.4706 24.3928 9.87448C24.5601 10.2784 24.8161 10.6395 25.1419 10.9311L26.2823 11.9519C26.5881 12.2255 26.8327 12.5605 27.0001 12.935C27.1676 13.3096 27.2542 13.7153 27.2542 14.1255C27.2542 14.5358 27.1676 14.9415 27.0001 15.3161C26.8327 15.6906 26.5881 16.0256 26.2823 16.2992L25.1419 17.32C24.8159 17.6118 24.5598 17.9731 24.3924 18.3773C24.2251 18.7814 24.1508 19.218 24.175 19.6548L24.2596 21.1861C24.2822 21.5956 24.2181 22.0053 24.0716 22.3885C23.9251 22.7716 23.6994 23.1195 23.4092 23.4095C23.1191 23.6995 22.7711 23.925 22.3879 24.0713C22.0047 24.2177 21.595 24.2815 21.1854 24.2588L19.6556 24.1742C19.2191 24.1502 18.7828 24.2246 18.3789 24.392C17.975 24.5593 17.6139 24.8153 17.3223 25.1411L16.3015 26.2815C16.0279 26.5872 15.6929 26.8319 15.3183 26.9993C14.9438 27.1668 14.5381 27.2534 14.1278 27.2534C13.7175 27.2534 13.3119 27.1668 12.9373 26.9993C12.5627 26.8319 12.2277 26.5872 11.9542 26.2815L10.9333 25.1411C10.6416 24.8151 10.2802 24.559 9.87609 24.3916C9.47194 24.2243 9.03531 24.1499 8.59854 24.1742L7.06729 24.2588C6.65773 24.2813 6.24801 24.2173 5.86488 24.0708C5.48176 23.9242 5.13385 23.6985 4.84387 23.4084C4.55389 23.1183 4.32837 22.7703 4.18203 22.3871C4.03568 22.0039 3.97181 21.5942 3.99459 21.1846L4.07917 19.6548C4.10318 19.2183 4.02876 18.7819 3.8614 18.3781C3.69404 17.9742 3.43803 17.6131 3.11229 17.3215L1.97188 16.3006C1.66611 16.0271 1.4215 15.6921 1.25403 15.3175C1.08656 14.943 1 14.5373 1 14.127C1 13.7167 1.08656 13.311 1.25403 12.9365C1.4215 12.5619 1.66611 12.2269 1.97188 11.9534L3.11229 10.9325C3.43823 10.6408 3.69436 10.2794 3.86172 9.87528C4.02909 9.47112 4.10341 9.0345 4.07917 8.59773L3.99459 7.06648C3.97222 6.65703 4.03644 6.24747 4.18306 5.86452C4.32968 5.48157 4.5554 5.13384 4.84549 4.84403C5.13559 4.55421 5.48353 4.32882 5.86662 4.18257C6.2497 4.03631 6.65933 3.97248 7.06875 3.99523L8.59854 4.07981C9.03507 4.10383 9.47141 4.0294 9.8753 3.86204C10.2792 3.69468 10.6403 3.43867 10.9319 3.11294L11.9542 1.97106Z" stroke="black" stroke-width="2"/>
<path d="M10.4813 10.4805H10.4958V10.4951H10.4813V10.4805ZM17.7729 17.7721H17.7875V17.7867H17.7729V17.7721Z" stroke="black" stroke-width="3" stroke-linejoin="round"/>
<path d="M18.5021 9.75146L9.75208 18.5015" stroke="black" stroke-width="2" stroke-linecap="round" stroke-linejoin="round"/>
</svg>
