<svg width="9" height="9" viewBox="0 0 9 9" fill="none" xmlns="http://www.w3.org/2000/svg">
<path d="M7.08333 0.833333H6.25V0.416667C6.25 0.30616 6.2061 0.200179 6.12796 0.122039C6.04982 0.0438987 5.94384 0 5.83333 0C5.72283 0 5.61685 0.0438987 5.53871 0.122039C5.46057 0.200179 5.41667 0.30616 5.41667 0.416667V0.833333H2.91667V0.416667C2.91667 0.30616 2.87277 0.200179 2.79463 0.122039C2.71649 0.0438987 2.61051 0 2.5 0C2.38949 0 2.28351 0.0438987 2.20537 0.122039C2.12723 0.200179 2.08333 0.30616 2.08333 0.416667V0.833333H1.25C0.918479 0.833333 0.600537 0.965029 0.366117 1.19945C0.131696 1.43387 0 1.75181 0 2.08333V7.08333C0 7.41485 0.131696 7.7328 0.366117 7.96722C0.600537 8.20164 0.918479 8.33333 1.25 8.33333H7.08333C7.41485 8.33333 7.7328 8.20164 7.96722 7.96722C8.20164 7.7328 8.33333 7.41485 8.33333 7.08333V2.08333C8.33333 1.75181 8.20164 1.43387 7.96722 1.19945C7.7328 0.965029 7.41485 0.833333 7.08333 0.833333ZM7.5 7.08333C7.5 7.19384 7.4561 7.29982 7.37796 7.37796C7.29982 7.4561 7.19384 7.5 7.08333 7.5H1.25C1.13949 7.5 1.03351 7.4561 0.955372 7.37796C0.877232 7.29982 0.833333 7.19384 0.833333 7.08333V4.16667H7.5V7.08333ZM7.5 3.33333H0.833333V2.08333C0.833333 1.97283 0.877232 1.86685 0.955372 1.78871C1.03351 1.71057 1.13949 1.66667 1.25 1.66667H2.08333V2.08333C2.08333 2.19384 2.12723 2.29982 2.20537 2.37796C2.28351 2.4561 2.38949 2.5 2.5 2.5C2.61051 2.5 2.71649 2.4561 2.79463 2.37796C2.87277 2.29982 2.91667 2.19384 2.91667 2.08333V1.66667H5.41667V2.08333C5.41667 2.19384 5.46057 2.29982 5.53871 2.37796C5.61685 2.4561 5.72283 2.5 5.83333 2.5C5.94384 2.5 6.04982 2.4561 6.12796 2.37796C6.2061 2.29982 6.25 2.19384 6.25 2.08333V1.66667H7.08333C7.19384 1.66667 7.29982 1.71057 7.37796 1.78871C7.4561 1.86685 7.5 1.97283 7.5 2.08333V3.33333Z" fill="black"/>
</svg>
