<svg width="30" height="30" viewBox="0 0 30 30" fill="none" xmlns="http://www.w3.org/2000/svg">
<g clip-path="url(#clip0_2018_974)">
<path fill-rule="evenodd" clip-rule="evenodd" d="M13.83 0.0942383C14.2562 0.0942383 14.665 0.263562 14.9664 0.564959C15.2678 0.866357 15.4371 1.27514 15.4371 1.70138V19.8214C15.4371 20.2476 15.2678 20.6564 14.9664 20.9578C14.665 21.2592 14.2562 21.4285 13.83 21.4285C13.4037 21.4285 12.9949 21.2592 12.6935 20.9578C12.3921 20.6564 12.2228 20.2476 12.2228 19.8214V1.70138C12.2228 1.27514 12.3921 0.866357 12.6935 0.564959C12.9949 0.263562 13.4037 0.0942383 13.83 0.0942383ZM21.48 5.72995C21.48 5.30371 21.3106 4.89493 21.0092 4.59353C20.7078 4.29213 20.2991 4.12281 19.8728 4.12281C19.4466 4.12281 19.0378 4.29213 18.7364 4.59353C18.435 4.89493 18.2657 5.30371 18.2657 5.72995V17.3442C18.2657 17.7705 18.435 18.1793 18.7364 18.4807C19.0378 18.7821 19.4466 18.9514 19.8728 18.9514C20.2991 18.9514 20.7078 18.7821 21.0092 18.4807C21.3106 18.1793 21.48 17.7705 21.48 17.3442V5.72995ZM9.39424 9.76281C9.39424 9.33657 9.22492 8.92779 8.92352 8.62639C8.62212 8.32499 8.21334 8.15567 7.7871 8.15567C7.36086 8.15567 6.95207 8.32499 6.65068 8.62639C6.34928 8.92779 6.17996 9.33657 6.17996 9.76281V17.82C6.17996 18.2462 6.34928 18.655 6.65068 18.9564C6.95207 19.2578 7.36086 19.4271 7.7871 19.4271C8.21334 19.4271 8.62212 19.2578 8.92352 18.9564C9.22492 18.655 9.39424 18.2462 9.39424 17.82V9.76281ZM3.3471 11.7771C3.3471 11.566 3.30553 11.3571 3.22476 11.1621C3.144 10.9671 3.02561 10.7899 2.87638 10.6407C2.72714 10.4914 2.54997 10.3731 2.35498 10.2923C2.15999 10.2115 1.95101 10.17 1.73996 10.17C1.5289 10.17 1.31992 10.2115 1.12493 10.2923C0.929941 10.3731 0.752771 10.4914 0.603534 10.6407C0.454297 10.7899 0.335915 10.9671 0.255149 11.1621C0.174382 11.3571 0.132812 11.566 0.132813 11.7771V15.8057C0.132813 16.2319 0.302136 16.6407 0.603534 16.9421C0.904931 17.2435 1.31371 17.4128 1.73996 17.4128C2.1662 17.4128 2.57498 17.2435 2.87638 16.9421C3.17777 16.6407 3.3471 16.2319 3.3471 15.8057V11.7771ZM25.92 8.15567C26.3462 8.15567 26.755 8.32499 27.0564 8.62639C27.3578 8.92779 27.5271 9.33657 27.5271 9.76281V12.255C27.5271 12.6812 27.3578 13.09 27.0564 13.3914C26.755 13.6928 26.3462 13.8621 25.92 13.8621C25.4937 13.8621 25.0849 13.6928 24.7835 13.3914C24.4821 13.09 24.3128 12.6812 24.3128 12.255V9.76281C24.3128 9.33657 24.4821 8.92779 24.7835 8.62639C25.0849 8.32499 25.4937 8.15567 25.92 8.15567ZM29.5842 17.4235C29.8702 17.7393 30.0192 18.1557 29.9983 18.5812C29.9774 19.0068 29.7884 19.4066 29.4728 19.6928C27.9385 21.0857 26.8971 22.2342 26.0357 23.5778C25.17 24.9278 24.4435 26.5457 23.6164 28.92C23.5264 29.1791 23.3715 29.411 23.1666 29.5933C22.9616 29.7757 22.7134 29.9026 22.4455 29.9619C22.1776 30.0212 21.899 30.0109 21.6362 29.9321C21.3734 29.8532 21.1352 29.7084 20.9442 29.5114L17.3485 25.8042C17.0516 25.4982 16.8884 25.0867 16.8948 24.6604C16.9012 24.234 17.0768 23.8276 17.3828 23.5307C17.6889 23.2337 18.1003 23.0705 18.5267 23.0769C18.9531 23.0834 19.3594 23.2589 19.6564 23.565L21.4885 25.455C21.9929 24.1984 22.6097 22.9899 23.3314 21.8442C24.3964 20.1792 25.6542 18.8164 27.3128 17.3121C27.4692 17.1702 27.6521 17.0604 27.8509 16.9892C28.0497 16.918 28.2607 16.8866 28.4716 16.897C28.6826 16.9073 28.8894 16.9592 29.0803 17.0495C29.2712 17.1399 29.4425 17.267 29.5842 17.4235Z" fill="#0FA3E2"/>
</g>
<defs>
<clipPath id="clip0_2018_974">
<rect width="30" height="30" fill="white"/>
</clipPath>
</defs>
</svg>
