<svg width="29" height="29" viewBox="0 0 29 29" fill="none" xmlns="http://www.w3.org/2000/svg">
<path d="M3.91667 14.125H1L14.125 1L27.25 14.125H24.3333M3.91667 14.125V24.3333C3.91667 25.1069 4.22396 25.8487 4.77094 26.3957C5.31792 26.9427 6.05979 27.25 6.83333 27.25H21.4167C22.1902 27.25 22.9321 26.9427 23.4791 26.3957C24.026 25.8487 24.3333 25.1069 24.3333 24.3333V14.125" stroke="black" stroke-width="2" stroke-linecap="round" stroke-linejoin="round"/>
<path d="M9.75 27.2502V18.5002C9.75 17.7266 10.0573 16.9847 10.6043 16.4378C11.1513 15.8908 11.8931 15.5835 12.6667 15.5835H15.5833C16.3569 15.5835 17.0987 15.8908 17.6457 16.4378C18.1927 16.9847 18.5 17.7266 18.5 18.5002V27.2502" stroke="black" stroke-width="2" stroke-linecap="round" stroke-linejoin="round"/>
</svg>
