<svg width="140" height="59" viewBox="0 0 140 59" fill="none" xmlns="http://www.w3.org/2000/svg">
<rect width="11" height="31" fill="#D9D9D9"/>
<path d="M18.704 46L12.688 38.448V46H8.208V22.32H12.688V35.792L18.64 28.272H24.464L16.656 37.168L24.528 46H18.704ZM34.6025 46.288C32.8958 46.288 31.3598 45.9147 29.9945 45.168C28.6292 44.4 27.5518 43.3227 26.7625 41.936C25.9945 40.5493 25.6105 38.9493 25.6105 37.136C25.6105 35.3227 26.0052 33.7227 26.7945 32.336C27.6052 30.9493 28.7038 29.8827 30.0905 29.136C31.4772 28.368 33.0238 27.984 34.7305 27.984C36.4372 27.984 37.9838 28.368 39.3705 29.136C40.7572 29.8827 41.8452 30.9493 42.6345 32.336C43.4452 33.7227 43.8505 35.3227 43.8505 37.136C43.8505 38.9493 43.4345 40.5493 42.6025 41.936C41.7918 43.3227 40.6825 44.4 39.2745 45.168C37.8878 45.9147 36.3305 46.288 34.6025 46.288ZM34.6025 42.384C35.4132 42.384 36.1705 42.192 36.8745 41.808C37.5998 41.4027 38.1758 40.8053 38.6025 40.016C39.0292 39.2267 39.2425 38.2667 39.2425 37.136C39.2425 35.4507 38.7945 34.16 37.8985 33.264C37.0238 32.3467 35.9465 31.888 34.6665 31.888C33.3865 31.888 32.3092 32.3467 31.4345 33.264C30.5812 34.16 30.1545 35.4507 30.1545 37.136C30.1545 38.8213 30.5705 40.1227 31.4025 41.04C32.2558 41.936 33.3225 42.384 34.6025 42.384ZM76.4478 28.016C78.6238 28.016 80.3731 28.688 81.6958 30.032C83.0398 31.3547 83.7118 33.2107 83.7118 35.6V46H79.2318V36.208C79.2318 34.8213 78.8798 33.7653 78.1758 33.04C77.4718 32.2933 76.5118 31.92 75.2958 31.92C74.0798 31.92 73.1091 32.2933 72.3838 33.04C71.6798 33.7653 71.3278 34.8213 71.3278 36.208V46H66.8478V36.208C66.8478 34.8213 66.4958 33.7653 65.7918 33.04C65.0878 32.2933 64.1278 31.92 62.9118 31.92C61.6744 31.92 60.6931 32.2933 59.9678 33.04C59.2638 33.7653 58.9118 34.8213 58.9118 36.208V46H54.4318V28.272H58.9118V30.416C59.4878 29.6693 60.2238 29.0827 61.1198 28.656C62.0371 28.2293 63.0398 28.016 64.1278 28.016C65.5144 28.016 66.7518 28.3147 67.8398 28.912C68.9278 29.488 69.7704 30.32 70.3678 31.408C70.9438 30.384 71.7758 29.5627 72.8638 28.944C73.9731 28.3253 75.1678 28.016 76.4478 28.016ZM86.646 37.072C86.646 35.28 86.998 33.6907 87.702 32.304C88.4273 30.9173 89.398 29.8507 90.614 29.104C91.8513 28.3573 93.2273 27.984 94.742 27.984C96.0647 27.984 97.2167 28.2507 98.198 28.784C99.2007 29.3173 100.001 29.9893 100.598 30.8V28.272H105.11V46H100.598V43.408C100.022 44.24 99.222 44.9333 98.198 45.488C97.1953 46.0213 96.0327 46.288 94.71 46.288C93.2167 46.288 91.8513 45.904 90.614 45.136C89.398 44.368 88.4273 43.2907 87.702 41.904C86.998 40.496 86.646 38.8853 86.646 37.072ZM100.598 37.136C100.598 36.048 100.385 35.12 99.958 34.352C99.5313 33.5627 98.9553 32.9653 98.23 32.56C97.5047 32.1333 96.726 31.92 95.894 31.92C95.062 31.92 94.294 32.1227 93.59 32.528C92.886 32.9333 92.31 33.5307 91.862 34.32C91.4353 35.088 91.222 36.0053 91.222 37.072C91.222 38.1387 91.4353 39.0773 91.862 39.888C92.31 40.6773 92.886 41.2853 93.59 41.712C94.3153 42.1387 95.0833 42.352 95.894 42.352C96.726 42.352 97.5047 42.1493 98.23 41.744C98.9553 41.3173 99.5313 40.72 99.958 39.952C100.385 39.1627 100.598 38.224 100.598 37.136ZM114.537 31.952V40.528C114.537 41.1253 114.675 41.5627 114.953 41.84C115.251 42.096 115.742 42.224 116.425 42.224H118.505V46H115.689C111.913 46 110.025 44.1653 110.025 40.496V31.952H107.913V28.272H110.025V23.888H114.537V28.272H118.505V31.952H114.537ZM138.042 36.752C138.042 37.392 137.999 37.968 137.914 38.48H124.954C125.06 39.76 125.508 40.7627 126.298 41.488C127.087 42.2133 128.058 42.576 129.21 42.576C130.874 42.576 132.058 41.8613 132.762 40.432H137.594C137.082 42.1387 136.1 43.5467 134.65 44.656C133.199 45.744 131.418 46.288 129.306 46.288C127.599 46.288 126.063 45.9147 124.698 45.168C123.354 44.4 122.298 43.3227 121.53 41.936C120.783 40.5493 120.41 38.9493 120.41 37.136C120.41 35.3013 120.783 33.6907 121.53 32.304C122.276 30.9173 123.322 29.8507 124.666 29.104C126.01 28.3573 127.556 27.984 129.306 27.984C130.991 27.984 132.495 28.3467 133.818 29.072C135.162 29.7973 136.196 30.832 136.922 32.176C137.668 33.4987 138.042 35.024 138.042 36.752ZM133.402 35.472C133.38 34.32 132.964 33.4027 132.154 32.72C131.343 32.016 130.351 31.664 129.178 31.664C128.068 31.664 127.13 32.0053 126.362 32.688C125.615 33.3493 125.156 34.2773 124.986 35.472H133.402Z" fill="black"/>
</svg>
