<svg width="108" height="59" viewBox="0 0 108 59" fill="none" xmlns="http://www.w3.org/2000/svg">
<rect width="11" height="31" fill="#D9D9D9"/>
<path d="M18.704 46L12.688 38.448V46H8.208V22.32H12.688V35.792L18.64 28.272H24.464L16.656 37.168L24.528 46H18.704ZM34.6025 46.288C32.8958 46.288 31.3598 45.9147 29.9945 45.168C28.6292 44.4 27.5518 43.3227 26.7625 41.936C25.9945 40.5493 25.6105 38.9493 25.6105 37.136C25.6105 35.3227 26.0052 33.7227 26.7945 32.336C27.6052 30.9493 28.7038 29.8827 30.0905 29.136C31.4772 28.368 33.0238 27.984 34.7305 27.984C36.4372 27.984 37.9838 28.368 39.3705 29.136C40.7572 29.8827 41.8452 30.9493 42.6345 32.336C43.4452 33.7227 43.8505 35.3227 43.8505 37.136C43.8505 38.9493 43.4345 40.5493 42.6025 41.936C41.7918 43.3227 40.6825 44.4 39.2745 45.168C37.8878 45.9147 36.3305 46.288 34.6025 46.288ZM34.6025 42.384C35.4132 42.384 36.1705 42.192 36.8745 41.808C37.5998 41.4027 38.1758 40.8053 38.6025 40.016C39.0292 39.2267 39.2425 38.2667 39.2425 37.136C39.2425 35.4507 38.7945 34.16 37.8985 33.264C37.0238 32.3467 35.9465 31.888 34.6665 31.888C33.3865 31.888 32.3092 32.3467 31.4345 33.264C30.5812 34.16 30.1545 35.4507 30.1545 37.136C30.1545 38.8213 30.5705 40.1227 31.4025 41.04C32.2558 41.936 33.3225 42.384 34.6025 42.384ZM59.6478 31.952V40.528C59.6478 41.1253 59.7864 41.5627 60.0638 41.84C60.3624 42.096 60.8531 42.224 61.5358 42.224H63.6158V46H60.7998C57.0238 46 55.1358 44.1653 55.1358 40.496V31.952H53.0238V28.272H55.1358V23.888H59.6478V28.272H63.6158V31.952H59.6478ZM71.153 31.024C71.729 30.0853 72.4757 29.3493 73.393 28.816C74.3317 28.2827 75.3983 28.016 76.593 28.016V32.72H75.409C74.001 32.72 72.9343 33.0507 72.209 33.712C71.505 34.3733 71.153 35.5253 71.153 37.168V46H66.673V28.272H71.153V31.024ZM81.7175 26.16C80.9282 26.16 80.2668 25.9147 79.7335 25.424C79.2215 24.912 78.9655 24.2827 78.9655 23.536C78.9655 22.7893 79.2215 22.1707 79.7335 21.68C80.2668 21.168 80.9282 20.912 81.7175 20.912C82.5068 20.912 83.1575 21.168 83.6695 21.68C84.2028 22.1707 84.4695 22.7893 84.4695 23.536C84.4695 24.2827 84.2028 24.912 83.6695 25.424C83.1575 25.9147 82.5068 26.16 81.7175 26.16ZM83.9255 28.272V46H79.4455V28.272H83.9255ZM92.6668 30.832C93.2428 30.0213 94.0321 29.3493 95.0348 28.816C96.0588 28.2613 97.2214 27.984 98.5228 27.984C100.037 27.984 101.403 28.3573 102.619 29.104C103.856 29.8507 104.827 30.9173 105.531 32.304C106.256 33.6693 106.619 35.2587 106.619 37.072C106.619 38.8853 106.256 40.496 105.531 41.904C104.827 43.2907 103.856 44.368 102.619 45.136C101.403 45.904 100.037 46.288 98.5228 46.288C97.2214 46.288 96.0694 46.0213 95.0668 45.488C94.0854 44.9547 93.2854 44.2827 92.6668 43.472V54.448H88.1868V28.272H92.6668V30.832ZM102.043 37.072C102.043 36.0053 101.819 35.088 101.371 34.32C100.944 33.5307 100.368 32.9333 99.6428 32.528C98.9388 32.1227 98.1708 31.92 97.3388 31.92C96.5281 31.92 95.7601 32.1333 95.0348 32.56C94.3308 32.9653 93.7548 33.5627 93.3068 34.352C92.8801 35.1413 92.6668 36.0693 92.6668 37.136C92.6668 38.2027 92.8801 39.1307 93.3068 39.92C93.7548 40.7093 94.3308 41.3173 95.0348 41.744C95.7601 42.1493 96.5281 42.352 97.3388 42.352C98.1708 42.352 98.9388 42.1387 99.6428 41.712C100.368 41.2853 100.944 40.6773 101.371 39.888C101.819 39.0987 102.043 38.16 102.043 37.072Z" fill="black"/>
</svg>
