<svg width="15" height="14" viewBox="0 0 15 14" fill="none" xmlns="http://www.w3.org/2000/svg">
<path d="M13.75 6.74966H5.06811ZM2.00362 6.74966H0.75ZM13.75 11.2608H9.71086ZM6.64638 11.2608H0.75ZM13.75 2.23848H11.5681ZM8.50362 2.23848H0.75ZM10.0355 3.72696C10.2367 3.72696 10.4359 3.68846 10.6217 3.61365C10.8076 3.53885 10.9765 3.42921 11.1187 3.29099C11.261 3.15277 11.3738 2.98868 11.4508 2.80809C11.5278 2.6275 11.5674 2.43395 11.5674 2.23848C11.5674 2.04301 11.5278 1.84945 11.4508 1.66886C11.3738 1.48827 11.261 1.32418 11.1187 1.18597C10.9765 1.04775 10.8076 0.938107 10.6217 0.863304C10.4359 0.788501 10.2367 0.75 10.0355 0.75C9.62923 0.75 9.23959 0.906821 8.9523 1.18597C8.66502 1.46511 8.50362 1.84371 8.50362 2.23848C8.50362 2.63325 8.66502 3.01185 8.9523 3.29099C9.23959 3.57013 9.62923 3.72696 10.0355 3.72696ZM3.53551 8.23814C3.9418 8.23814 4.33144 8.08131 4.61872 7.80217C4.90601 7.52303 5.06741 7.14443 5.06741 6.74966C5.06741 6.35489 4.90601 5.97629 4.61872 5.69715C4.33144 5.418 3.9418 5.26118 3.53551 5.26118C3.12923 5.26118 2.73959 5.418 2.4523 5.69715C2.16502 5.97629 2.00362 6.35489 2.00362 6.74966C2.00362 7.14443 2.16502 7.52303 2.4523 7.80217C2.73959 8.08131 3.12923 8.23814 3.53551 8.23814ZM8.17827 12.75C8.58465 12.75 8.97438 12.5931 9.26173 12.3139C9.54908 12.0347 9.71086 11.6557 9.71086 11.2608C9.71086 10.866 9.54908 10.4876 9.26173 10.2084C8.97438 9.92922 8.58465 9.77236 8.17827 9.77236C7.77199 9.77236 7.38234 9.92918 7.09506 10.2083C6.80777 10.4875 6.64638 10.8661 6.64638 11.2608C6.64638 11.6556 6.80777 12.0342 7.09506 12.3134C7.38234 12.5925 7.77199 12.75 8.17827 12.75Z" fill="#D9D9D9"/>
<path d="M13.75 6.74966H5.06811M2.00362 6.74966H0.75M2.00362 6.74966C2.00362 6.35489 2.16502 5.97629 2.4523 5.69715C2.73959 5.418 3.12923 5.26118 3.53551 5.26118C3.9418 5.26118 4.33144 5.418 4.61872 5.69715C4.90601 5.97629 5.06741 6.35489 5.06741 6.74966C5.06741 7.14443 4.90601 7.52303 4.61872 7.80217C4.33144 8.08131 3.9418 8.23814 3.53551 8.23814C3.12923 8.23814 2.73959 8.08131 2.4523 7.80217C2.16502 7.52303 2.00362 7.14443 2.00362 6.74966ZM13.75 11.2608H9.71086M9.71086 11.2608C9.71086 11.6557 9.54908 12.0347 9.26173 12.3139C8.97438 12.5931 8.58465 12.75 8.17827 12.75C7.77199 12.75 7.38234 12.5925 7.09506 12.3134C6.80777 12.0342 6.64638 11.6556 6.64638 11.2608M9.71086 11.2608C9.71086 10.866 9.54908 10.4876 9.26173 10.2084C8.97438 9.92922 8.58465 9.77236 8.17827 9.77236C7.77199 9.77236 7.38234 9.92918 7.09506 10.2083C6.80777 10.4875 6.64638 10.8661 6.64638 11.2608M6.64638 11.2608H0.75M13.75 2.23848H11.5681M8.50362 2.23848H0.75M8.50362 2.23848C8.50362 1.84371 8.66502 1.46511 8.9523 1.18597C9.23959 0.906821 9.62923 0.75 10.0355 0.75C10.2367 0.75 10.4359 0.788501 10.6217 0.863304C10.8076 0.938107 10.9765 1.04775 11.1187 1.18597C11.261 1.32418 11.3738 1.48827 11.4508 1.66886C11.5278 1.84945 11.5674 2.04301 11.5674 2.23848C11.5674 2.43395 11.5278 2.6275 11.4508 2.80809C11.3738 2.98868 11.261 3.15277 11.1187 3.29099C10.9765 3.42921 10.8076 3.53885 10.6217 3.61365C10.4359 3.68846 10.2367 3.72696 10.0355 3.72696C9.62923 3.72696 9.23959 3.57013 8.9523 3.29099C8.66502 3.01185 8.50362 2.63325 8.50362 2.23848Z" stroke="white" stroke-width="1.5" stroke-miterlimit="10" stroke-linecap="round"/>
</svg>
