<svg width="29" height="23" viewBox="0 0 29 23" fill="none" xmlns="http://www.w3.org/2000/svg">
<path d="M19 1V4M19 10V13M19 19V22M4 1H25C25.7956 1 26.5587 1.31607 27.1213 1.87868C27.6839 2.44129 28 3.20435 28 4V8.5C27.2044 8.5 26.4413 8.81607 25.8787 9.37868C25.3161 9.94129 25 10.7044 25 11.5C25 12.2956 25.3161 13.0587 25.8787 13.6213C26.4413 14.1839 27.2044 14.5 28 14.5V19C28 19.7956 27.6839 20.5587 27.1213 21.1213C26.5587 21.6839 25.7956 22 25 22H4C3.20435 22 2.44129 21.6839 1.87868 21.1213C1.31607 20.5587 1 19.7956 1 19V14.5C1.79565 14.5 2.55871 14.1839 3.12132 13.6213C3.68393 13.0587 4 12.2956 4 11.5C4 10.7044 3.68393 9.94129 3.12132 9.37868C2.55871 8.81607 1.79565 8.5 1 8.5V4C1 3.20435 1.31607 2.44129 1.87868 1.87868C2.44129 1.31607 3.20435 1 4 1Z" stroke="black" stroke-width="2" stroke-linecap="round" stroke-linejoin="round"/>
</svg>
