<svg width="21" height="30" viewBox="0 0 21 30" fill="none" xmlns="http://www.w3.org/2000/svg">
<path d="M6.5625 23.3333V10.2083H4.375V23.3333M11.3021 23.3333V10.2083H9.11458V23.3333M16.0417 23.3333V10.2083H13.8542V23.3333M17.5438 5.83333C19.1188 5.83333 20.4167 7.11667 20.4167 8.75V24.7917C20.4167 26.4396 19.1188 27.7083 17.5438 27.7083C17.5438 28.5542 16.8583 29.1667 16.0417 29.1667C15.3125 29.1667 14.5833 28.5542 14.5833 27.7083H5.83333C5.83333 28.5542 5.10417 29.1667 4.375 29.1667C3.55833 29.1667 2.87292 28.5542 2.87292 27.7083C1.29792 27.7083 0 26.4396 0 24.7917V8.75C0 7.11667 1.29792 5.83333 2.87292 5.83333H5.83333V1.45833C5.83333 0.6125 6.50417 0 7.29167 0H13.125C13.9125 0 14.5833 0.6125 14.5833 1.45833V5.83333M8.02083 2.1875V5.83333H12.3958V2.1875M17.5438 24.7917V8.75H2.87292V24.7917" fill="black"/>
</svg>
