<svg width="9" height="9" viewBox="0 0 9 9" fill="none" xmlns="http://www.w3.org/2000/svg">
<path d="M4.33333 0C4.90797 0 5.45907 0.228273 5.8654 0.634602C6.27173 1.04093 6.5 1.59203 6.5 2.16667C6.5 2.7413 6.27173 3.2924 5.8654 3.69873C5.45907 4.10506 4.90797 4.33333 4.33333 4.33333C3.7587 4.33333 3.2076 4.10506 2.80127 3.69873C2.39494 3.2924 2.16667 2.7413 2.16667 2.16667C2.16667 1.59203 2.39494 1.04093 2.80127 0.634602C3.2076 0.228273 3.7587 0 4.33333 0ZM4.33333 1.08333C4.04602 1.08333 3.77047 1.19747 3.5673 1.40063C3.36414 1.6038 3.25 1.87935 3.25 2.16667C3.25 2.45398 3.36414 2.72953 3.5673 2.9327C3.77047 3.13586 4.04602 3.25 4.33333 3.25C4.62065 3.25 4.8962 3.13586 5.09937 2.9327C5.30253 2.72953 5.41667 2.45398 5.41667 2.16667C5.41667 1.87935 5.30253 1.6038 5.09937 1.40063C4.8962 1.19747 4.62065 1.08333 4.33333 1.08333ZM4.33333 4.875C5.77958 4.875 8.66667 5.59542 8.66667 7.04167V8.66667H0V7.04167C0 5.59542 2.88708 4.875 4.33333 4.875ZM4.33333 5.90417C2.72458 5.90417 1.02917 6.695 1.02917 7.04167V7.6375H7.6375V7.04167C7.6375 6.695 5.94208 5.90417 4.33333 5.90417Z" fill="black"/>
</svg>
