<svg width="13" height="11" viewBox="0 0 13 11" fill="none" xmlns="http://www.w3.org/2000/svg">
<path d="M11.8749 7.42938L8.17994 1.27063C7.69494 0.4625 6.95307 0 6.14307 0C5.33307 0 4.59119 0.4625 4.10619 1.26937L0.411193 7.42938C-0.0800566 8.2475 -0.133807 9.12 0.264318 9.82313C0.661818 10.5269 1.43807 10.9306 2.39307 10.9306H9.89307C10.8481 10.9306 11.6243 10.5269 12.0218 9.82375C12.4193 9.12063 12.3662 8.24813 11.8749 7.42938ZM6.14307 8.77375C5.60932 8.77375 5.17432 8.33938 5.17432 7.80562C5.17432 7.27125 5.60869 6.83625 6.14307 6.83625C6.67744 6.83625 7.11182 7.27125 7.11182 7.80562C7.11182 8.33938 6.67682 8.77375 6.14307 8.77375ZM7.16369 4.13375C7.15682 4.15313 6.28807 6.30125 6.28807 6.30125C6.26432 6.36 6.20682 6.39875 6.14369 6.39875C6.08057 6.39875 6.02307 6.36 5.99932 6.30125L5.12994 4.1525C5.07778 4.02226 5.05043 3.88342 5.04932 3.74313C5.04932 3.14 5.53994 2.64938 6.14307 2.64938C6.3202 2.64983 6.49459 2.69325 6.65125 2.77591C6.80792 2.85857 6.94219 2.97801 7.04256 3.12397C7.14292 3.26994 7.20637 3.43807 7.22747 3.61395C7.24857 3.78982 7.22668 3.96819 7.16369 4.13375Z" fill="black"/>
</svg>
